<?xml version="1.0" encoding="UTF-8"?>
<svg xmlns="http://www.w3.org/2000/svg" version="1.1" viewBox="0 0 841.89 595.28">
  <defs>
    <style>
      .cls-1 {
        fill: #885f35;
      }

      .cls-2 {
        fill: #d9cbbe;
      }

      .cls-3 {
        fill: #885e34;
      }

      .cls-4 {
        fill: #f6f3f0;
      }

      .cls-5 {
        fill: #997551;
      }

      .cls-6 {
        fill: #9b7956;
      }

      .cls-7 {
        fill: #ac8f72;
      }

      .cls-8 {
        fill: #794b1b;
      }

      .cls-9 {
        fill: #84592e;
      }

      .cls-10 {
        fill: #764616;
      }

      .cls-11 {
        fill: #c0aa93;
      }

      .cls-12 {
        fill: #8d653e;
      }

      .cls-13 {
        fill: #c0aa94;
      }

      .cls-14 {
        fill: #fbfaf9;
      }

      .cls-15 {
        fill: #e9e2da;
      }

      .cls-16 {
        fill: #72400e;
      }

      .cls-17 {
        fill: #d5c7b9;
      }

      .cls-18 {
        fill: #f4f0ec;
      }

      .cls-19 {
        fill: #bea891;
      }

      .cls-20 {
        fill: #734211;
      }

      .cls-21 {
        fill: #cfbfae;
      }

      .cls-22 {
        fill: #7d5022;
      }

      .cls-23 {
        fill: #8e673f;
      }

      .cls-24 {
        fill: #f9f7f5;
      }

      .cls-25 {
        fill: #815629;
      }

      .cls-26 {
        fill: #d6c8ba;
      }

      .cls-27 {
        fill: #754514;
      }

      .cls-28 {
        fill: #72410f;
      }

      .cls-29 {
        fill: #f3efeb;
      }

      .cls-30 {
        fill: #724210;
      }

      .cls-31 {
        fill: #f8f6f4;
      }

      .cls-32 {
        fill: #b79e85;
      }

      .cls-33 {
        fill: #c3ae99;
      }

      .cls-34 {
        fill: #71400e;
      }

      .cls-35 {
        fill: #b49a80;
      }

      .cls-36 {
        fill: #f1ede8;
      }

      .cls-37 {
        fill: #e4dbd1;
      }

      .cls-38 {
        fill: #916a43;
      }

      .cls-39 {
        fill: #fcfbfb;
      }

      .cls-40 {
        fill: #703e0c;
      }

      .cls-41 {
        fill: #896137;
      }

      .cls-42 {
        fill: #794a1b;
      }

      .cls-43 {
        fill: #efeae4;
      }

      .cls-44 {
        fill: #b8a087;
      }

      .cls-45 {
        fill: #865d32;
      }

      .cls-46 {
        fill: #906a43;
      }

      .cls-47 {
        fill: #d8cabd;
      }

      .cls-48 {
        fill: #ac9073;
      }

      .cls-49 {
        fill: #703e0b;
      }

      .cls-50 {
        fill: #bfa892;
      }

      .cls-51 {
        fill: #f6f4f1;
      }

      .cls-52 {
        fill: #9a7753;
      }

      .cls-53 {
        fill: #8e663e;
      }

      .cls-54 {
        fill: #875e34;
      }

      .cls-55 {
        fill: #845a2f;
      }

      .cls-56 {
        fill: #f9f8f6;
      }

      .cls-57 {
        fill: #926d47;
      }

      .cls-58 {
        fill: #ae9275;
      }

      .cls-59 {
        fill: #c1ac96;
      }

      .cls-60 {
        fill: #78491a;
      }

      .cls-61 {
        fill: #e6ddd4;
      }

      .cls-62 {
        fill: #794a1a;
      }

      .cls-63 {
        fill: #744312;
      }

      .cls-64 {
        fill: #764716;
      }

      .cls-65 {
        fill: #fbfbfa;
      }

      .cls-66 {
        fill: #8d663e;
      }

      .cls-67 {
        fill: #946e48;
      }

      .cls-68 {
        fill: #7f5326;
      }

      .cls-69 {
        fill: #ddd2c6;
      }

      .cls-70 {
        fill: #7f5325;
      }

      .cls-71 {
        fill: #eae2db;
      }

      .cls-72 {
        fill: #865c31;
      }

      .cls-73 {
        fill: #7e5123;
      }

      .cls-74 {
        fill: #eee8e2;
      }

      .cls-75 {
        fill: #84592d;
      }

      .cls-76 {
        fill: #9e7d5b;
      }

      .cls-77 {
        fill: #c5b19d;
      }

      .cls-78 {
        fill: #c6b29e;
      }

      .cls-79 {
        fill: #ede7e1;
      }

      .cls-80 {
        fill: #8f6841;
      }

      .cls-81 {
        fill: #e4dad1;
      }

      .cls-82 {
        fill: #c7b4a0;
      }

      .cls-83 {
        fill: #bda68f;
      }

      .cls-84 {
        fill: #7e5124;
      }

      .cls-85 {
        fill: #a28261;
      }

      .cls-86 {
        fill: #97744f;
      }

      .cls-87 {
        fill: #8b6239;
      }

      .cls-88 {
        fill: #e4dbd2;
      }

      .cls-89 {
        fill: #8a6238;
      }

      .cls-90 {
        fill: #faf8f7;
      }

      .cls-91 {
        fill: #7d5021;
      }

      .cls-92 {
        fill: #8a6239;
      }

      .cls-93 {
        fill: #845a2e;
      }

      .cls-94 {
        fill: #8c643c;
      }

      .cls-95 {
        fill: #7a4c1d;
      }

      .cls-96 {
        fill: #ccbaa8;
      }

      .cls-97 {
        fill: #bba38b;
      }

      .cls-98 {
        fill: #9d7b58;
      }

      .cls-99 {
        fill: #987551;
      }

      .cls-100 {
        fill: #a48565;
      }

      .cls-101 {
        fill: #764615;
      }

      .cls-102 {
        fill: #764717;
      }

      .cls-103 {
        fill: #805427;
      }

      .cls-104 {
        fill: #815529;
      }

      .cls-105 {
        fill: #713f0d;
      }

      .cls-106 {
        fill: #ebe5de;
      }

      .cls-107 {
        fill: #ded3c7;
      }

      .cls-108 {
        fill: #d3c3b4;
      }

      .cls-109 {
        fill: #b9a188;
      }

      .cls-110 {
        fill: #bba48c;
      }

      .cls-111 {
        fill: #9a7854;
      }

      .cls-112 {
        fill: #8c653c;
      }

      .cls-113 {
        fill: #7c4f21;
      }

      .cls-114 {
        fill: #7b4d1f;
      }

      .cls-115 {
        fill: #9c7956;
      }

      .cls-116 {
        fill: #7f5225;
      }

      .cls-117 {
        fill: #774818;
      }

      .cls-118 {
        fill: #e1d7cd;
      }

      .cls-119 {
        fill: #83582c;
      }

      .cls-120 {
        fill: #9d7b59;
      }

      .cls-121 {
        fill: #926c46;
      }

      .cls-122 {
        fill: #dacdc0;
      }

      .cls-123 {
        fill: #e7dfd7;
      }

      .cls-124 {
        fill: #fcfbfa;
      }

      .cls-125 {
        fill: #ad9073;
      }

      .cls-126 {
        fill: #fefefe;
      }

      .cls-127 {
        fill: #b2987d;
      }

      .cls-128 {
        fill: #815528;
      }

      .cls-129 {
        fill: #82562a;
      }

      .cls-130 {
        fill: #7d4f21;
      }

      .cls-131 {
        fill: #9b7855;
      }

      .cls-132 {
        fill: #b3997e;
      }

      .cls-133 {
        fill: #855b30;
      }

      .cls-134 {
        fill: #cab7a5;
      }

      .cls-135 {
        fill: #d1c1b0;
      }

      .cls-136 {
        fill: #a78869;
      }

      .cls-137 {
        fill: #744413;
      }

      .cls-138 {
        fill: #8b633a;
      }

      .cls-139 {
        fill: #794b1c;
      }

      .cls-140 {
        fill: #96724d;
      }

      .cls-141 {
        fill: #ab8f71;
      }

      .cls-142 {
        fill: #f7f4f1;
      }

      .cls-143 {
        fill: #c9b7a4;
      }

      .cls-144 {
        fill: #9f7f5d;
      }
    </style>
  </defs>
  <!-- Generator: Adobe Illustrator 28.6.0, SVG Export Plug-In . SVG Version: 1.2.0 Build 709)  -->
  <g>
    <g id="Layer_1">
      <g>
        <path class="cls-126" d="M233.51,303.44c0-61.46.02-122.92-.06-184.38,0-2.4.26-3.15,2.98-3.15,123.04.09,246.09.09,369.13.02,2.39,0,2.85.6,2.85,2.89-.06,123.04-.07,246.09.03,369.13,0,2.8-.87,2.94-3.19,2.94-122.92-.06-245.84-.06-368.76.02-2.6,0-3.05-.57-3.05-3.09.09-61.46.07-122.92.07-184.38Z"/>
        <path class="cls-49" d="M395.31,412.95c-11.03-1.33-21.29-5.15-31.01-10.29-29.19-15.42-48.83-39-56.96-71-9.13-35.9-2.11-69.09,20.99-98.25,16.71-21.1,38.77-34,65.14-39.45.6-.12,1.24-.08,1.86-.11,2.9,2.1,2.64,4.9-.63,6.71-11.37,2.56-22.25,6.37-32.32,12.34-25.67,15.22-42.09,37.39-49.2,66.29-11.33,46.05,11.08,95.21,53.16,117.07,9.67,5.03,20.02,8.19,30.64,10.52,1.79,3.94,1.35,5.57-1.67,6.16Z"/>
        <path class="cls-40" d="M389.23,298.18c0-1.45-.03-2.2,0-2.94.03-.71-.14-1.58.95-1.69.65-.07,1.33.04,1.51.76.56,2.22,2.27,1.86,3.89,1.85,19.35-.02,38.7.01,58.06-.05,1.75,0,3.07.83,4.51,1.53.86-.85.33-1.9.49-2.82.3-1.73,1.85-1.79,2.32-.82,1.92,4.02,5.15,1.29,7.9,2.2-2.42-5.04,2.27-11.51,8.46-12.38,7.28-1.02,12.66,2.78,17.95,6.9.97.76.61,1.4.02,2.19-.85,1.12-1.48.38-2.16-.14-2.59-1.96-5.15-3.96-8.23-5.12-5.16-1.95-9.42-.99-12.47,2.91-.79,1.01-2.11,1.95-1.16,3.57.91,1.54,2.18,2.11,4.02,2.09,8.24-.09,16.48-.08,24.72,0,1.15.01,2.97-.89,3.3,1.24.35,2.33-1.51,1.83-2.75,1.81-2.04-.04-1.69,1.36-1.7,2.56-.01,6.12.03,12.24-.04,18.36-.01.92.76,2.4-1.04,2.66-1.27.18-2.26-.03-3.12-1.34-2.91-4.47-7.08-7.34-12.27-8.56-1.96-.46-2.5-1.87-2.96-3.42-.6-2.02,1.32-2.14,2.36-2.75,3.76-2.23,7.79-3.91,11.88-5.44.63-.24,1.66-.21,1.46-1.28-.19-1.02-1.16-.74-1.84-.74-5.99-.02-11.98.05-17.96-.04-2.26-.04-1.89,1.42-1.89,2.75,0,6.12,0,12.24-.02,18.36,0,1.14.49,2.6-1.65,2.53-2.13-.07-1.54-1.57-1.55-2.66-.05-5.75-.05-11.49,0-17.24.01-2.06.31-4.29-2.91-3.67-2.2.42-5.73-1.67-5.33,3.48.45,5.84.11,11.73.1,17.61,0,1.22.29,2.53-1.74,2.5-2.04-.03-1.68-1.39-1.68-2.58-.02-5.25.04-10.49-.02-15.74-.05-4.22-2.54-6.07-6.67-5.32-1.92.35-1.53,1.66-1.54,2.82-.03,5.87.04,11.74-.05,17.61-.02,1.23.96,3.3-1.75,3.16-2.44-.12-1.35-2-1.39-3.09-.17-4.66-3.62-8.97-8.02-9.69-1.77-.29-3.68-.39-4.62,1.51-.91,1.82-.23,3.49,1.55,4.45,1.54.82,1.46,1.69.62,2.96-1.1,1.67-2,.28-2.75-.22-2.35-1.55-3.65-3.75-3.29-6.66.35-2.84,2.19-4.34,4.82-5.06.77-.21,1.97.1,2.03-1.14.05-.92-.68-1.63-1.41-2.1-.82-.53-1.8-.81-2.67-1.28-1.53-.83-3.99.12-4.56-2.8-.14-.73-2.77-.66-4.21-.32-1.36.33-.78,1.66-.79,2.54-.05,6.12-.01,12.24-.04,18.36,0,1.13.5,2.57-1.62,2.58-2.03.01-1.76-1.28-1.76-2.51,0-3-.1-6,.02-8.99.1-2.56-1.09-4.11-3.43-4.61-2.42-.52-3.39.98-3.5,3.2-.04.88-.43,1.36-1.34,1.44-.94.08-1.39-.46-1.59-1.24-.47-1.82-1.51-3.18-3.27-3.8-1.75-.62-3.58-.66-4.69,1.11-1.15,1.84-.63,3.6.99,4.99.56.48,1.2.94,1.89,1.19,1.41.51,1.06,1.32.7,2.37-.51,1.46-1.39,1.03-2.34.66-4.21-1.65-6.5-6.37-4.83-9.99,1.68-3.67,6.73-5.05,10.65-2.66,1.5.91,2.41,1.47,4.07.18,1.65-1.28,2.55-.95,6.32.45q.86-5.4-4.37-5.41c-6.86,0-13.73.09-20.59-.04-2.13-.04-2.79.56-2.75,2.71.13,6.12.07,12.24.03,18.36,0,1.1.59,2.61-1.59,2.59-2.12-.03-1.6-1.49-1.61-2.61-.04-5.25.02-10.49-.03-15.74-.05-4.24-2.48-6.01-6.65-5.3-1.8.31-1.38,1.46-1.39,2.47-.03,6.12.02,12.24-.06,18.36-.01.94.73,2.39-.95,2.74-1.44.3-2.65-.01-3.36-1.56-.41-.89-1.11-1.66-1.76-2.4-1.83-2.06-3.27-3.83-6.57-1.32-3.88,2.96-9.94,1.66-13.74-1.98-2.87-2.74-4.52-6.22-5.91-9.86-.4-1.06-.67-1.86.77-2.28,1.16-.34,1.91-.11,2.31,1.09.79,2.38,1.87,4.62,3.28,6.69,2.23,3.27,5.27,4.83,9.29,4.34,4.33-.52,6.53-4.76,4.41-8.62-.92-1.68-2.37-2.54-4.31-2.39-1.85.14-2.62,1.21-2.4,3.04.2,1.63-1.22,1.34-2.03,1.54-1.25.3-1.35-.77-1.43-1.65-.12-1.37-.14-2.67.8-3.9,1.84-2.41,1.28-3.88-1.76-4.16-2.97-.28-5.99-.11-8.99-.12-1.18,0-2.31.02-2.21-1.7.08-1.49,1.11-1.42,2.12-1.42,11.99,0,23.98,0,35.98.01,1.53,0,2.9.56,4.59,1.97Z"/>
        <path class="cls-40" d="M432.12,334.39c-1.03,5.36-2.06,10.8-3.12,16.23-.33,1.71-.76,3.41-1.11,5.12-1.07,5.12-1.07,5.23,4.16,5.88,25.51,3.18,51.04,6.27,76.55,9.47,1.99.25,2.87.16,3.03-2.21,2.22-33.4,4.49-66.79,6.92-100.17.23-3.2-.8-3.73-3.57-3.57-3.61.21-7.24.07-10.87.04-1.35-.01-2.55-.03-2.28,1.89.63,4.5-.87,9.23,1.52,13.56.47.86.33,1.97-.7,2.64-.67.44-1.32.58-2.07.09-1.01-.66-1.22-1.62-.86-2.62,1.66-4.52.22-9.11.44-13.66.07-1.45-.62-1.92-2.04-1.92-11.37.04-22.74.06-34.11-.02-1.71-.01-2.26.79-2.3,2.16-.11,4.66-2.48,9.16-.93,13.96.26.82-.04,1.73-.95,2.25-.94.54-1.69.14-2.36-.47-.74-.67-.91-1.66-.42-2.4,2.72-4.06,1.85-8.88,2.96-13.27.51-2.03-.39-2.36-2.09-2.21-1.12.1-2.25.02-3.37.02-8.74,0-8.72,0-10.36,8.75-.95,5.02-1.98,10.03-2.99,15.04-.14.68.05,1.7-1.08,1.58-1.28-.14-.63-1.13-.52-1.72,1.51-7.84,3.09-15.66,4.59-23.5.34-1.76,1.56-1.65,2.83-1.65,3.25,0,6.54-.31,9.73.09,3.38.42,4.14-1.11,4.5-3.99.88-7.05,1.76-14.13,3.11-21.1,1.9-9.78,9.1-14.98,18.96-15,8.46-.02,16.19,7.84,17.21,16.3.84,6.97.5,13.97,1.03,20.95.18,2.33.86,2.91,3.08,2.81,3.99-.18,8.01.2,11.98-.13,3-.25,4.08.79,4.59,3.64,3.75,20.74,7.63,41.46,11.48,62.18,1.6,8.58,3.18,17.17,4.88,25.73.65,3.25.37,5.42-3.28,7.01-6.62,2.87-12.97,6.38-19.34,9.78-2,1.07-3.93,1.34-6.1,1.07-26.99-3.45-53.98-6.91-80.98-10.24-2.21-.27-2.84-1.02-2.45-3.01,1.59-8.07,3.17-16.15,4.78-24.22.15-.73.38-1.53,1.89-1.13Z"/>
        <path class="cls-105" d="M391.87,274.27c5.29-1.63,8.21-5.11,10.07-10.35,1.95,4.87,3.59,9.46,9.36,10.87-5.15,1.48-8.73,4.38-10.11,10.72-1.82-5.6-3.55-10.12-9.32-11.23Z"/>
        <path class="cls-39" d="M334.66,345.87c-.49-.68-.97-1.37-1.46-2.05-.6-5.01,4.9-9.02,10.31-7.51,1.74,1.06,2.88,2.34,1.73,4.51-1.58,2.9-4.36,4.24-7.2,5.49-1.19.53-2.37.6-3.38-.44Z"/>
        <path class="cls-65" d="M471.92,391.88c.94-.8,1.77-1.87,2.86-2.33,1.31-.56,2.6-3.18,3.97-1.29,1.32,1.82,1.58,4.75-.28,6.51-1.63,1.56-3.4,3.29-5.81,3.86-1.54-2.11-1.14-4.43-.75-6.75Z"/>
        <path class="cls-16" d="M361.78,235.44c.08,2.71-1.25,4.18-3.72,4.19-2.67.01-3.95-1.55-3.9-4.28.05-2.66,1.58-3.89,3.95-3.85,2.44.04,3.84,1.47,3.68,3.94Z"/>
        <path class="cls-28" d="M361.78,367.61c.03,2.83-1.28,4.09-3.91,4.03-2.69-.06-3.71-1.54-3.72-4.09,0-2.72,1.63-3.99,3.96-3.94,2.39.05,3.9,1.51,3.67,4Z"/>
        <path class="cls-63" d="M409.11,285.25c3.21-1.14,5.27-2.69,6.39-5.89,1.37,2.8,2.35,5.29,6.37,6.16-3.43,1.24-5.56,2.51-6.52,5.66-1.62-2.72-2.93-5.06-6.24-5.94Z"/>
        <path class="cls-124" d="M474.91,208.95c2.44,2.19,6.17,3.5,5.28,7.95-.21,1.07.13,2.38-1.1,2.92-1.15.51-1.72-.67-2.46-1.25-.85-.68-2.06-.94-2.47-2.13-1.48-2.67-1.57-5.2.75-7.5Z"/>
        <path class="cls-4" d="M460.67,397.87c2-1,4-2,6-3,2.17-.83,2.17.95,2.45,2.16.39,1.63-.07,3.18-.96,4.59-2,1-4,1.99-6,2.99-1.51-2.02-.88-4.51-1.49-6.73Z"/>
        <path class="cls-142" d="M464.42,203.71c1.97.23,3.49,1.53,5.25,2.25,1.51,2.67,1.07,5.15-.75,7.49-2.25-1.25-4.5-2.5-6.75-3.75.79-1.98-.15-4.61,2.24-5.99Z"/>
        <path class="cls-9" d="M394.7,200.57c2.12-2.06,2.12-4.31.63-6.71,1.91-.95,3.97-.63,5.98-.76,3.08,1.64,2.02,3.87.9,6.12-2.43.87-4.98,1.05-7.5,1.34Z"/>
        <path class="cls-3" d="M395.31,412.95c3.19-1.34.98-4.15,1.67-6.16,2.05-.13,4.03.22,5.97.89,2.03,4.26,1.26,6.13-2.5,6.04-1.74-.09-3.53.18-5.13-.77Z"/>
        <path class="cls-90" d="M468.92,213.45c-.11-2.53,1.2-4.92.75-7.49,1.8.91,3.13,2.65,5.25,3-.89,2.43-.78,4.97-.75,7.5-1.73-1.04-3.79-1.49-5.25-3Z"/>
        <path class="cls-37" d="M444.93,196.21c1.9-.02,3.55.81,5.24,1.52,1.48,2.24,1.61,4.48,0,6.73-2.27-.74-4.76-.77-6.8-2.22.6-1.99.13-4.25,1.55-6.03Z"/>
        <path class="cls-24" d="M468.16,401.62c-.66-2.21,1.48-5.04-1.5-6.74,1.61-1.25,3.24-2.44,5.25-3,1.5,2.11.42,4.51.75,6.75-1.5,1-3,2-4.5,2.99Z"/>
        <path class="cls-29" d="M464.42,203.71c-1.81,1.6.83,4.87-2.24,5.99-1-.5-2-1-3-1.5-1.5-2.37-1.37-4.91-.75-7.49,2.32.36,4.1,1.78,5.99,3Z"/>
        <path class="cls-121" d="M402.2,199.23c-.36-2.03.83-4.29-.9-6.12,1.97-.97,4.06-.62,6.13-.55,2,4.35,1.31,5.86-2.97,6.52-.75.05-1.5.11-2.26.16Z"/>
        <path class="cls-43" d="M458.42,200.71c1.33,2.39.53,4.99.75,7.49-1.71-.32-3.24-1.01-4.5-2.22-1.4-2.25-1.65-4.51,0-6.76,1.25.5,2.5.99,3.75,1.49Z"/>
        <path class="cls-71" d="M454.67,199.22c0,2.25,0,4.51,0,6.76-1.63-.12-3.19-.43-4.49-1.52,0-2.24,0-4.48,0-6.73,1.5.5,3,.99,4.5,1.49Z"/>
        <path class="cls-36" d="M460.67,397.87c2.97,1.7.84,4.52,1.49,6.73-1.49.51-2.99,1.02-4.48,1.53-1.66-2.25-1.43-4.51,0-6.77.77-.97,1.82-1.37,3-1.5Z"/>
        <path class="cls-78" d="M425.45,192.56c1.57-.31,3.01.32,4.48.67,1.77,3.84,1.36,5.41-1.59,6.03-3.71-.37-7.49.46-11.16-.69.12-.15.24-.3.36-.45.85-.53,1.8-.57,2.76-.61.9-.04,1.81-.01,2.71-.03,3.7-.21,1.34-3.42,2.43-4.91Z"/>
        <path class="cls-79" d="M457.67,399.37c0,2.26,0,4.51,0,6.77-.99,1.15-2.28,1.55-3.76,1.47-1.28-1.8-1.34-3.92-1.51-6,1.65-.99,3.37-1.81,5.26-2.24Z"/>
        <path class="cls-73" d="M341.72,271.87c-.98,2.05-1.5,3.15-1.8,3.78-3.65-2.64-7.92-3.91-11.79-5.92-.61-.32-2.08.28-1.46-1.32.47-1.22,1.31-.73,2.13-.35,2.93,1.37,5.87,2.72,8.81,4.06,1.08.49,2.12,1.49,4.11-.26Z"/>
        <path class="cls-33" d="M429.21,413.66c-1.16.76-2.45.8-3.77.67-1.68-1.18.02-3.84-2.13-4.81-.73-.1-1.45-.15-2.19-.14-1.22-.08-2.48-.01-3.34-1.14,3.51-1.04,7.11-.44,10.66-.59,2.51,1.71,1.05,3.93.77,5.99Z"/>
        <path class="cls-95" d="M321.29,299.41c2.97,2.12,4.36.72,5.48-2.19,1.58-4.09,3.69-4.64,6.86-2.12-.02.55-.24.64-.65.27-2.95-.86-3.87,1.06-4.8,3.29-1.63,3.93-3.74,4.4-6.96,1.75-.35-.36-.33-.7.06-1.01Z"/>
        <path class="cls-76" d="M404.46,199.07c4.02-.79,2.9-3.93,2.97-6.52,1.25-.02,2.51-.04,3.76-.06,1.48,2.01,1.39,4.03.01,6.05-2.21.69-4.48.56-6.74.53Z"/>
        <path class="cls-132" d="M417.78,408.26l3.85.19c1.37,1.59,1.54,3.44.56,5.15-1.2,2.08-3.27.94-5.02.92-1.52-2.06-1.4-4.12.02-6.17.18-.11.38-.14.58-.09Z"/>
        <path class="cls-47" d="M440.38,201.51c-1.25-.18-2.65.34-3.7-.78-.9-2.23-.3-4.46.02-6.69,1.5.47,2.99.94,4.49,1.42,1.04,2.19,2.3,4.42-.8,6.06Z"/>
        <path class="cls-108" d="M436.69,194.03c1.41,2.23.54,4.46-.02,6.69-1.28-.16-2.68.32-3.77-.74-.14-2.23-.39-4.45-.7-6.66,1.49.24,2.99.47,4.48.71Z"/>
        <path class="cls-80" d="M326.51,282.6c.47-1.17.65-1.89,1.02-2.49.35-.57.8-.2,1.24.07,2.99,1.91,6.83-2.42,10,1.47-4.12,1.17-8,.42-12.26.94Z"/>
        <path class="cls-96" d="M432.21,193.32c2.16,2.02,1.93,4.29.7,6.66-1.53-.15-3.18.38-4.56-.72,3.15-1.32.94-4.05,1.59-6.03.76.03,1.52.06,2.28.09Z"/>
        <path class="cls-69" d="M440.38,201.51c1.58-1.85.46-4.05.8-6.06,1.32-.1,2.59.07,3.74.77-.65,1.98,1.54,4.68-1.55,6.03-1.03-.1-2.18.24-2.99-.73Z"/>
        <path class="cls-7" d="M417.19,408.35c0,2,0,4-.01,6.01-.16.32-.41.53-.75.64-3.32.05-6.65.41-9.92-.5.68-.98,1.73-1.04,2.77-1.12.76-.03,1.52-.08,2.28-.08,1.32.04,1.54-.83,1.64-1.89.1-1.08.12-2.2,1-3.02,1-.01,2-.02,3-.04Z"/>
        <path class="cls-15" d="M452.41,401.61c1.98,1.63,1.44,3.89,1.51,6-1.24.53-2.31,1.46-3.75,1.5-1.65-2.25-1.41-4.5,0-6.75.54-.85,1.42-.71,2.23-.75Z"/>
        <path class="cls-17" d="M437.45,412.76c-.75.04-1.51.08-2.26.12-1.47-1.75-.79-4.34-2.34-6.06,1.35-1.13,2.99-.55,4.5-.75,1.56-.73,2.13.21,2.16,1.48.05,1.98.13,4.07-2.06,5.21Z"/>
        <path class="cls-113" d="M343.51,336.31c-5.02-.06-9.79,3.42-10.31,7.51-1.5-.79-.96-2.13-.68-3.21.78-3.01,6.45-6.34,9.5-5.72.82.17,1.29.64,1.5,1.42Z"/>
        <path class="cls-75" d="M381.8,214.21c1.29-.06,1.06,1.02,1.5,1.52,2.1,2.4,1.99,5.79,3.74,8.29.91,1.31.13,1.29-.66,1.71-1.45.76-.9-.26-1.18-.99-1.17-3-2.6-5.9-3.86-8.88-.16-.39-1.61.08-.62-.92.33-.34.81-.55,1.09-.73Z"/>
        <path class="cls-62" d="M420.45,275.44c-.35-2.68-1.97-3.33-3.4-4.6,1.76-.65,2.86-1.83,4-3.73.85,1.87,1.79,3.19,3.75,4.3-2.23.56-3.31,1.77-4.35,4.03Z"/>
        <path class="cls-61" d="M450.17,402.36c0,2.25,0,4.5,0,6.75-.92.53-1.89.88-2.98.81-1.48-1.77-.96-4.06-1.54-6.06,1.32-1.06,2.87-1.41,4.52-1.5Z"/>
        <path class="cls-22" d="M335.07,289.92c-.09.21-.16.61-.28.62-4.24.48-8.28-.1-12.21-1.78.75-2.05,2.7-.18,3.21-1.78.2-.29.43-.32.68-.06,2.1,2.93,5.55,1.56,8.25,2.59l.34.06v.35Z"/>
        <path class="cls-5" d="M409.63,414.26c-1.04.08-2.08.16-3.13.24,0,0-.3.03-.3.03l-.26-.14c-1.42-2.03-1.5-4.08-.06-6.15,1.53-.15,3.32-.98,4.31.87.94,1.74.83,3.57-.56,5.16Z"/>
        <path class="cls-118" d="M445.66,403.86c3.05,1.38.86,4.08,1.54,6.06-1.08.93-2.42,1.16-3.76,1.39-.58-2.24-.26-4.48-.06-6.73.58-.8,1.45-.69,2.28-.72Z"/>
        <path class="cls-143" d="M429.21,413.66c-1.72-1.81.91-4.18-.77-5.99,1.28-.08,2.37-1.1,3.74-.76,1.49,2.2,1.54,4.39-.01,6.59-.99.06-1.97.11-2.96.17Z"/>
        <path class="cls-122" d="M437.45,412.76c1.03-2.25,2.42-4.5-.1-6.69.83-.96,1.98-.66,3.03-.76,2.79,1.44,2.25,3.73,1.56,6.06-1.5.46-2.99.92-4.49,1.38Z"/>
        <path class="cls-46" d="M405.9,408.44c.01,1.98.03,3.96.04,5.94-1.87.07-3.75.23-5.5-.66,4.44-.52,1.77-3.99,2.5-6.04.5.03,1,.05,1.51.08.42.38,1.17.05,1.46.69Z"/>
        <path class="cls-133" d="M411.85,389.63c0-1.37-.11-2.75.05-4.09.07-.62-1.16-1.89.58-1.88,1.42,0,.91,1.25.89,1.99-.09,2.98-.44,5.96-.37,8.93.03,1.26-.54,1.16-1.24,1.11-.8-.06-.77-.47-.6-1.24.35-1.57.39-3.2.55-4.81.05,0,.09,0,.14,0Z"/>
        <path class="cls-21" d="M432.17,413.49c0-2.2,0-4.39.01-6.59.22-.07.44-.1.67-.08,4.37.63,1.49,4.06,2.34,6.06-.95.48-1.92.84-3.02.61Z"/>
        <path class="cls-62" d="M334.66,345.87c4.63.64,7.11-3.25,10.58-5.05.22,3.87-3.15,4.54-5.53,5.85-1.58.88-3.69,1.43-5.05-.8Z"/>
        <path class="cls-128" d="M391.4,209.6c.92-.16,1.12.45,1.3,1.06.95,3.27,1.93,6.53,2.82,9.82.17.64.38,1.67-.63,1.84-1.16.2-.79-.89-1.01-1.52-1.19-3.35-1.28-7.08-3.16-10.17-.93-1.52.5-.73.68-1.03Z"/>
        <path class="cls-34" d="M487.73,320.73c-.09,1.52-.92,2.26-2.37,2.29-1.66.03-2.58-.88-2.53-2.48.04-1.39.91-2.28,2.38-2.28,1.62,0,2.5.84,2.52,2.47Z"/>
        <path class="cls-107" d="M441.93,411.38c-.96-1.91-.16-4.27-1.56-6.06.82-.97,1.97-.63,3-.74,1.43,2.23.98,4.48.06,6.73-.5.03-1,.05-1.51.08Z"/>
        <path class="cls-106" d="M371.43,331.32c-.7,1.46-1.73,1.28-2.87.6-1.32-1.94-1.11-3.92-.17-5.92l.02-.07c1.44-.82,2.5-.3,3.36.95.52,1.53.6,3.03-.34,4.45Z"/>
        <path class="cls-20" d="M416.27,394.82c.05-3.19.08-6.39.16-9.58.01-.52-1.03-1.44.43-1.53,1.13-.07.98.84,1,1.54.09,3.19.16,6.39.24,9.58.02.53-.16.98-.73,1.05-.74.09-1.11-.3-1.09-1.05Z"/>
        <path class="cls-141" d="M417.18,198.56c-1-.04-2-.08-3-.13-1.45-2-1.41-4.01,0-6.01,1,0,2,.02,3,.03,1.33,1.95,1.5,3.9-.03,5.84l.03.27Z"/>
        <path class="cls-127" d="M417.16,198.3l.03-5.84c1,.02,2,.03,2.99.05,1.4,1.96,1.44,3.9-.03,5.84-1-.02-2-.04-2.99-.06Z"/>
        <path class="cls-44" d="M420.15,198.35c.01-1.95.02-3.9.03-5.84,1,.01,2,.03,2.99.04,1.45,1.96,1.41,3.91-.02,5.86-1-.02-2.01-.04-3.01-.05Z"/>
        <path class="cls-85" d="M405.9,408.44c-.49-.23-.97-.46-1.46-.69,2.52-.1,5.03-.07,7.5.57,1.39,2.01,1.47,4.01-.01,6.01-.77-.02-1.53-.04-2.3-.07-.32-2.53,1.79-6.62-3.73-5.82Z"/>
        <path class="cls-100" d="M414.19,192.43c0,2,0,4.01,0,6.01-1,.03-1.99.07-2.99.1,0-2.02,0-4.03-.01-6.05,1-.02,2-.04,3.01-.06Z"/>
        <path class="cls-83" d="M416.43,415c.25-.21.5-.43.75-.64q4.59-.04,4.45-5.91c.77-.01,1.53-.03,2.3-.04,1.12,1.99,1.09,3.99,0,5.99-2.46.7-4.97.82-7.51.61Z"/>
        <path class="cls-50" d="M423.16,198.41c0-1.95.01-3.91.02-5.86.76,0,1.51,0,2.27,0,1.55,4.52,1.16,5.51-2.29,5.85Z"/>
        <path class="cls-1" d="M429.15,214.9c-1.56,1.3-1.49,3.31-2.12,5-.3.83.15,2.19-1.53,1.72-2-.56-.32-1.4-.12-2.09.47-1.66.93-3.33,1.54-4.94.24-.62-.86-1.5.34-1.82,1.12-.3,1.22,1.04,1.98,1.37.24.19.3.37.2.53-.1.15-.19.23-.28.23Z"/>
        <path class="cls-129" d="M380.87,377.69c-.55,3.73-2.54,6.5-3.39,9.73-.2.78-.6.39-1.02.11-.58-.38-.89-.67-.52-1.45,1.24-2.66,2.39-5.37,3.6-8.04.15-.33-.11-1.16.72-.85.38.14.67.55.62.51Z"/>
        <path class="cls-84" d="M327.22,316.21c2.21,1.21,4.29-.14,6.33-.53,2.24-.43,2.58.39,2.56,2.31-3.08-1.05-5.82.52-8.69.62q-1.29-.59-.2-2.4Z"/>
        <path class="cls-123" d="M339.63,264.51c-.06.24-.19.43-.38.59-.99,2.56-2.21,2.19-3.55.27-.4-.87-.87-1.74-.2-2.69.25-.44.51-.88.76-1.32,3.84-.57,4.38-.07,3.37,3.14Z"/>
        <path class="cls-113" d="M340.11,328.75c-1.91,2.83-5.31,3.7-7.67,5.85-.43.39-.72.08-.92-.16-.19-.22-.3-.85-.27-.86,3.11-1.22,4.35-5.26,8.13-5.43.17,0,.36.28.73.59Z"/>
        <path class="cls-8" d="M325.66,311.54c2.29-2.7,6.18-1.02,8.68-3.17.16.58.32,1.16.48,1.74.16.78-.21,1.03-.93.93-2.54.03-5,.55-7.4,1.37-.73.14-1.14-.03-.84-.88Z"/>
        <path class="cls-91" d="M432.22,214.14c1.3,1.41,1.24,8.16-.08,9.38-.53.49-.8-.16-1.2-.26-1.41-.36-.29-1.02-.2-1.55.39-2.27,2.53-4.35.8-6.87-.22-.66-.1-.99.67-.7Z"/>
        <path class="cls-22" d="M329.54,328.89c.22-3.26,3.58-3.38,5.22-5.23.35-.43.16-1.13.72-1.45.71-.23,1.57-.57,2.03.19.5.84-.43,1.24-.91,1.76-1.4,1.52-3.85,1.78-4.72,3.93-.61.77-1.19,1.59-2.33.8Z"/>
        <path class="cls-18" d="M411.97,215.61c-.18.29-.36.57-.54.86-1.02-.05-2.06,0-2.88-.77l.05.03c-1.46-1.28-1.48-2.55,0-3.82l-.05.02c.82-.51,1.69-.78,2.66-.49,1.9,1.09,1.7,2.56.76,4.16Z"/>
        <path class="cls-2" d="M423.92,332.12c-.98.9-1.97,1.04-2.98.06-.21-1.7-.13-3.36.76-4.89,1.49-1.42,1.97-.46,2.26.96.87,1.3.75,2.59-.04,3.87Z"/>
        <path class="cls-88" d="M447.91,383.74c.92-1.34,1.66-3.1,3.77-1.56.67.66,1.18,1.43,1.52,2.32-.81.97-2.06.93-3.11,1.35-1.03-.38-2.47-.35-2.19-2.1Z"/>
        <path class="cls-103" d="M336.15,265.21c1.07,1.04,2.13,1.72,3.1-.11-.87,2.52,1.71,2.84,3.22,4.34-3.54.5-5.63-.77-7.12-3.28-.33-.82.06-1.03.8-.95Z"/>
        <path class="cls-55" d="M416.38,324.59c2.25,2.27,1.19,4.88,1.56,7.32.1.62-.48.76-1,.7-.65-.08-.59-.49-.58-1.04.06-2.32.02-4.65.02-6.97Z"/>
        <path class="cls-66" d="M434.42,332.65c-.67-.16-1.81.65-1.77-.95.05-2.37.01-4.73.01-7.12,1.86-.03,1.36,1.36,1.8,2.08,1.92,2.01,1.06,4-.04,6Z"/>
        <path class="cls-100" d="M411.93,414.33c0-2,0-4.01.01-6.01.75.02,1.5.05,2.24.07,0,1.32-.04,2.64,0,3.96.06,1.63-.83,2.1-2.26,1.98Z"/>
        <path class="cls-26" d="M448.01,332.59c-.6-.03-1.19-.05-1.79-.08-1.75-1.72-1.95-3.38.16-4.97.82-1.12,1.59-1.39,2.3.1-.15,1.66.43,3.42-.68,4.95Z"/>
        <path class="cls-26" d="M394.78,332.59c-.6-.03-1.19-.05-1.79-.08-1.75-1.72-1.95-3.38.16-4.97.82-1.12,1.59-1.39,2.3.1-.15,1.66.43,3.42-.68,4.95Z"/>
        <path class="cls-70" d="M435.81,222.18c1.4-2.38.53-6.11,4.81-7.53-1.5,3.46-2.76,6.37-4.02,9.27-1.48-.03-.92-.98-.79-1.74Z"/>
        <path class="cls-1" d="M414.42,221.67c-1.44-3.04-5.32-.21-7.12-3.09,5.87-.5,6.5-.23,7.12,3.09Z"/>
        <path class="cls-10" d="M383.85,324.63c.79,2.28.12,4.72.45,7.05.09.66-.18.89-.75.9-.63.01-.76-.36-.76-.94.03-2.32.01-4.65.01-6.97.35-.01.7-.03,1.04-.04Z"/>
        <path class="cls-79" d="M421.53,212.64c.3.25.6.51.89.76.63.99.78,1.89-.42,2.58-1.48.25-2.76-.4-4.09-.86-.81-1.17-.06-1.84.81-2.46l-.07.04c.94-1.16,1.88-1.75,2.88-.06Z"/>
        <path class="cls-49" d="M429.26,386.27c3.31,2.46,1.6,5.76,2.72,8.17-.44.14-.91.45-1.33.38-.83-.13-.11-.64-.16-.97-.3-2.23-.71-4.45-1.23-7.58Z"/>
        <path class="cls-56" d="M399.3,212.67c1,.19,2.14-1.37,3.02.25,1.46.85,1.57,1.87.41,3.07-1.26-.04-2.56.48-3.78-.27-.63-1.1-.44-2.11.35-3.04Z"/>
        <path class="cls-51" d="M404.39,388.27c1.42-1.63,2.64-.96,3.81.32-.03.79-.06,1.59-.87,2.05-1.18.15-2.35.17-3.53-.02-.94-1.06-.44-1.78.58-2.36Z"/>
        <path class="cls-29" d="M378.45,332.53c-.57.04-1.13.09-1.7.13-1.13-1.73-1.07-3.49-.07-5.25.52,0,1.05,0,1.57,0,1.72,1.64,2.11,3.33.2,5.11Z"/>
        <path class="cls-81" d="M455.38,330.31c.28.49.56.98.84,1.47-1.47,1.17-2.67,1.23-3.39-.8-.19-1.19-.15-2.41-.42-3.6.88-1.13,2.03-.8,3.16-.6.28,1.19-1.07,2.3-.2,3.53Z"/>
        <path class="cls-73" d="M418.72,212.67c-.2.72-.4,1.44-.6,2.16.25.35.25.7-.01,1.04-.53.98.22,2.26-.74,3.16-1.95-3.07-1.47-5.26,1.35-6.35Z"/>
        <path class="cls-139" d="M399.3,212.67c-.02.99-.04,1.98-.05,2.96.76.93-.08,2.16.6,3.1-.02.56.44,1.88-.78,1.06-2.08-1.38-1.83-5.2.24-7.12Z"/>
        <path class="cls-119" d="M396.3,386.71c-1.09,1.88-1.05,3.92-.89,5.98.01.15.03.31.04.46-2.56-2.38-2.33-4.65.73-7.2.21.14.29.3.26.48-.04.18-.09.28-.15.28Z"/>
        <path class="cls-74" d="M423.31,391.16c-.28,0-.55-.01-.83-.02-.7-.74-.64-1.49-.04-2.26-.09-.13-.12-.26-.07-.41,1.05-1.29,2.4-.55,3.64-.55.07.25.14.5.21.74-.09,1.86-.34,3.53-2.91,2.49Z"/>
        <path class="cls-68" d="M368.39,326c-.25,1.98-.41,3.96.17,5.92-2.47-1.07-2.55-3.86-.17-5.92Z"/>
        <path class="cls-31" d="M434.42,332.65c.01-2,.03-4,.04-6,1.04.08,2.24-.42,2.92.88-1.45,1.43.05,3.69-1.43,5.12-.51,0-1.02,0-1.53,0Z"/>
        <path class="cls-93" d="M339.63,264.51c1.25-3.59-1.69-2.68-3.37-3.14,1.52-1.77,3.47-1.55,4.77-.21,1.5,1.54-.4,2.43-1.41,3.35Z"/>
        <path class="cls-19" d="M423.94,414.39c0-2,0-3.99,0-5.99,3.04,1.34.85,3.99,1.5,5.93-.5.02-1,.04-1.5.05Z"/>
        <path class="cls-89" d="M447.91,383.74c.28,1.17,1.48,1.38,2.19,2.1-1.55.63,0,1.59-.26,2.36,0,.3-.15.51-.41.65-1.68-1.35-3.3-2.72-1.52-5.11Z"/>
        <path class="cls-60" d="M387.3,327.02c2.01,1.7.9,3.63,1.19,5.24,0,.05-.6.3-.91.28-.35-.02-.58-.25-.54-.73.13-1.45.17-2.92.27-4.79Z"/>
        <path class="cls-23" d="M435.95,332.65c.02-1.44.09-2.88.04-4.31-.04-1.25.71-.92,1.39-.81.09,1.31.08,2.63.3,3.91.32,1.82-.96,1.1-1.73,1.21Z"/>
        <path class="cls-104" d="M440.71,327.22c.67.18.86.18.88.24.53,1.69.59,3.39-.04,5.05-.05.14-.91-.01-1.39-.03.18-1.72.36-3.44.55-5.27Z"/>
        <path class="cls-25" d="M422.44,388.88c-.16.76-.38,1.51.04,2.26v3.6c-1.46-2.01-3.46-4.05-.04-5.86Z"/>
        <path class="cls-48" d="M327.22,316.21c.27.78-1.36,1.72.2,2.4-.16.44-.21,1.14-.51,1.28-.85.39-1.04-.51-1.04-.97,0-1.5.24-3.02-.71-4.36.18-.32.2-.78.72-.79.45.82.9,1.63,1.35,2.45Z"/>
        <path class="cls-130" d="M376.67,327.42c.02,1.75.05,3.5.07,5.25-2.14-1.22-2.17-3.94-.07-5.25Z"/>
        <path class="cls-42" d="M378.45,332.53c.77-1.74.57-3.44-.2-5.11,3.05.27,1.63,2.72,1.94,4.22.32,1.55-1.04.78-1.74.89Z"/>
        <path class="cls-73" d="M404.39,388.27c-.19.65-.38,1.3-.58,1.94.32.36.31.7-.04,1.03-.27.74.33,2.08-.73,2.16-1.22.1-.93-1.24-.85-1.96.16-1.38-.4-3.42,2.19-3.18Z"/>
        <path class="cls-103" d="M394.78,332.59c.42-1.62-.26-3.4.68-4.95.66,1.77,2.2,3.66-.68,4.95Z"/>
        <path class="cls-103" d="M448.01,332.59c.42-1.62-.26-3.4.68-4.95.66,1.77,2.2,3.66-.68,4.95Z"/>
        <path class="cls-60" d="M440.19,385.37c-.04,1.91,1.57,3.62.84,5.97-1.79-2.02-2.16-3.88-.84-5.97Z"/>
        <path class="cls-12" d="M435.88,391.21c-1.28-1.57.17-4.86-3.59-4.88,2.74-.78,4.19-.03,4.31,2.58-.62.65.07,1.7-.72,2.29Z"/>
        <path class="cls-130" d="M411.97,215.61c-.3-1.23.62-2.69-.69-3.74-.26-.71-.01-.98.72-.84.23.03.45.07.67.11.43.09.68.37.77.8-.31,1.29,1.56,3.47-1.48,3.66Z"/>
        <path class="cls-114" d="M410.18,325.92v6.36c-.59-2.1-.72-4.19-.18-6.28l.18-.08Z"/>
        <path class="cls-117" d="M429.11,331.98c-1.6-.42-1.66-.55-1.64-4.02,0-.81-.6-2.06,1.12-1.76.19.03.34.33.51.5.09,1.76-.86,3.52,0,5.28Z"/>
        <path class="cls-58" d="M423.31,391.16c2.15.55,1.94-1.66,2.91-2.49.96.75,1.56,1.79.47,2.63-.94.72-2.31,1.22-3.38-.14Z"/>
        <path class="cls-115" d="M453.18,330.4c.37,1.87,1.98,1.01,3.04,1.37.72.87,1.41,1.73-.09,2.52-.85-.76-2.1-.69-2.96-1.41-1.29-.54-.91-1.54-.67-2.49.24-.34.47-.34.69.02Z"/>
        <path class="cls-116" d="M321.29,295.26c.14-.82.75-1.27,1.43-1.47.75-.23,1.88-.67,2.17.42.37,1.43-1.04.87-1.7,1.13-.45.18-.91.32-1.37.48-.57.18-.88.12-.54-.56Z"/>
        <path class="cls-41" d="M402.94,215.7c-.13-.94.17-1.99-.62-2.78.64-.41,1.35-.78,1.78.18.4.91,1.29,1.96-.27,2.71-.33.21-.62.17-.89-.11Z"/>
        <path class="cls-31" d="M453.16,332.88c1.24-.05,2.59-.34,2.96,1.41-1.33.24-3.06,1.33-2.96-1.41Z"/>
        <path class="cls-27" d="M446.39,327.54c-.92,1.63-.86,3.29-.16,4.97-.67.05-1.42.41-1.87-.46.93-1.44-1.05-3.71,1.35-4.72.2.17.42.24.68.21Z"/>
        <path class="cls-54" d="M421.7,327.29c-.19,1.64.2,3.37-.76,4.89-1.24-1.86-1.27-3.54.76-4.89Z"/>
        <path class="cls-27" d="M393.16,327.54c-.92,1.63-.86,3.29-.16,4.97-.67.05-1.42.41-1.87-.46.93-1.44-1.05-3.71,1.35-4.72.2.17.42.24.68.21Z"/>
        <path class="cls-30" d="M371.43,331.32c-.08-1.56-.16-3.12-.24-4.67.34-.31.67-.31.99.02.44,1.66,1.34,3.4-.75,4.65Z"/>
        <path class="cls-120" d="M410.18,325.92s-.18.08-.18.08c.83-1.49,2.08-.92,3.14-.48.62.25,1.37,1.06.74,1.75-.82.89-1.11-.02-1.42-.72-.47-1.09-1.5-.46-2.28-.62Z"/>
        <path class="cls-135" d="M429.11,331.98c-1.02-1.76-.68-3.52,0-5.28.49.1,1.56.02.9.84-1.12,1.4-.5,2.99-.89,4.44Z"/>
        <path class="cls-136" d="M402.94,215.7c.3.04.59.07.89.11-1.03,1.38-4.54-.62-3.98,2.92-1.08-.86-.65-2.02-.6-3.1,1.23.02,2.46.05,3.69.07Z"/>
        <path class="cls-99" d="M332.98,295.37c.17-.21.38-.3.65-.27,1.66,1.63,1.56,3.32.14,5.1.46-1.75.17-3.35-.79-4.83Z"/>
        <path class="cls-86" d="M398.45,385.85c1.6.18,2.72,1.33,2.04,2.62-.87,1.64-1.26.39-1.41-.69-.06-.42-.39-.81-.59-1.21-.2-.15-.27-.3-.22-.46.05-.17.11-.25.18-.25Z"/>
        <path class="cls-122" d="M416.27,394.82c.61,1.12,1.21,1.07,1.82,0,.64.12,1.34.46.58,1.05-.97.75-2.33.92-3.24,0-.62-.62.28-.9.84-1.05Z"/>
        <path class="cls-49" d="M435.88,391.21c.31-.74-.17-1.73.72-2.29.04.85.31,1.77.06,2.52-.32.95,2.12,2.09.1,2.43-1.33.22-.57-1.72-.87-2.66Z"/>
        <path class="cls-112" d="M387.9,386.72c-1.03-1-.24-2.84-2.4-3.58,2.48-.47,3.21.31,3.1,2.03-.44.42-.06,1.21-.7,1.55Z"/>
        <path class="cls-94" d="M329.54,328.89c.78-.27,1.56-.53,2.33-.8,1.06.09,2.13.17,3.19.26-1.85.25-3.58,1.85-5.52.54Z"/>
        <path class="cls-137" d="M399.79,332.09c-1.55-1.49-1.34-2.79-.22-4.66.75,1.71.56,3,.22,4.66Z"/>
        <path class="cls-52" d="M409.1,223.15c1.55-.01,3.1.14,4.62-.36-1.82,1.59-3.72,1.68-5.7.48.31-.43.67-.47,1.07-.13Z"/>
        <path class="cls-40" d="M423.92,332.12c.01-1.29.03-2.58.04-3.87,2.04,1.31,1.5,2.6-.04,3.87Z"/>
        <path class="cls-111" d="M321.29,295.26c.18.19.36.38.54.56-.65,1.12-.47,2.37-.54,3.59-.02.34-.04.67-.06,1.01-1.29-1.74-1.32-3.46.07-5.16Z"/>
        <path class="cls-101" d="M340.59,286.79c-1.58-1.78-.86-3.06-1.68-5,2.08,1.7,1.53,2.95,1.68,5Z"/>
        <path class="cls-49" d="M408.6,211.91c-.48,1.27-.4,2.55,0,3.82-1.59.13-1.8-1.01-1.75-2.11.04-.97.38-1.96,1.76-1.71Z"/>
        <path class="cls-82" d="M392.48,327.32c-1.79,1.19.18,3.46-1.35,4.72-.06-1.45-.24-2.92-.13-4.36.08-1.01.77-1.08,1.48-.36Z"/>
        <path class="cls-32" d="M332.52,322.96c-1.03.84-2.18.86-3.84.43.98-1.17,1.98-1.31,3.14-1.08.32.12.55.34.7.65Z"/>
        <path class="cls-82" d="M445.71,327.32c-1.79,1.19.18,3.46-1.35,4.72-.06-1.45-.24-2.92-.13-4.36.08-1.01.77-1.08,1.48-.36Z"/>
        <path class="cls-109" d="M418.11,215.86c0-.35,0-.69.01-1.04,1.18.29,2.37.58,3.55.86.26.12.35.26.29.42-.06.17-.14.25-.21.25-1.29.36-2.47-.07-3.65-.49Z"/>
        <path class="cls-32" d="M441.31,384.44c.84-1.16,1.7-.99,2.94-.3-1.18,1.34-2.07.13-2.94.3Z"/>
        <path class="cls-140" d="M330.09,273c.03,1.49,1.17,2.06.52,2.92-.17.22-1.23.18-1.35-.03-.44-.81.09-1.55.83-2.88Z"/>
        <path class="cls-80" d="M389.6,389.55c.59.69,1.09,1.46.26,2.22-.27.25-1.13.28-1.36.05-.77-.75.44-1.42.26-2.2.26-.3.53-.32.84-.07Z"/>
        <path class="cls-35" d="M335.07,289.92l-.31-.09s-.04-.32-.04-.32c.21-.79.71-1.51.74-2.4.97,1.04,1.3,2-.39,2.81Z"/>
        <path class="cls-125" d="M422.6,219.34c-1.31,1.83-2.42,1.73-4.71,1.1,2-.47,3.01-.71,4.71-1.1Z"/>
        <path class="cls-13" d="M408.54,215.7c1.04-.04,2.08-.08,2.88.77-1.18.55-2.57,1.93-2.88-.77Z"/>
        <path class="cls-102" d="M421.76,216.36c-.05-.22-.08-.44-.08-.67.77-.59.45-1.54.75-2.28,1.25.05,1.28.95,1.19,1.82-.11,1.13-.89,1.33-1.86,1.13Z"/>
        <path class="cls-77" d="M412.01,211.04c-.24.28-.48.56-.72.84-.91.02-1.82.04-2.73.06.71-1.99,2-1.77,3.46-.89Z"/>
        <path class="cls-110" d="M452.42,388.8c.52-.71.53-1.92,1.92-1.95.31,1.67-.8,2.15-1.98,2.58-.2-.16-.26-.31-.18-.44.08-.13.16-.19.24-.19Z"/>
        <path class="cls-25" d="M455.38,330.31c-.86-1.23-.81-2.4.2-3.53,1.31,1.25-.08,2.35-.2,3.53Z"/>
        <path class="cls-144" d="M389.6,389.55c-.28.02-.56.05-.84.07-.43-.73-3.55-.42-.91-2.34.61.03,1.07.34,1.46.8.1.49.2.99.29,1.48Z"/>
        <path class="cls-101" d="M389.31,388.07c-.65.03-1.16-.18-1.46-.8,0-.19,0-.37.05-.56.23-.52.46-1.03.7-1.55-.1,1.05,1.15,1.77.71,2.9Z"/>
        <path class="cls-98" d="M345.26,266.76c-1.24-1.01-1.23-1.91-1.24-3.07,1.92.72.99,1.84,1.24,3.07Z"/>
        <path class="cls-85" d="M452.42,388.8c-.06.21-.07.42-.06.63-1.07.27-2.17.69-2.93-.59.14-.22.27-.43.41-.65.86.2,1.72.4,2.58.6Z"/>
        <path class="cls-64" d="M407.45,390.39c.07-.68.12-1.36.75-1.81.83,1.16,1.75,2.35-.75,2.52-.27-.16-.36-.32-.27-.48.09-.16.18-.24.27-.24Z"/>
        <path class="cls-72" d="M453.2,384.49c-1.36-.22-1.28-1.37-1.52-2.32,1.79-.07,2.14.81,1.52,2.32Z"/>
        <path class="cls-59" d="M326.47,286.92l-.34-.03-.33.09c-.15-.74-.19-1.47.49-1.98.37-.28.71-.04.82.33.19.66-.13,1.17-.63,1.59Z"/>
        <path class="cls-83" d="M398.45,385.85c.01.24.02.47.04.71-.73.05-1.46.1-2.19.15-.04-.25-.07-.5-.11-.75.7-1.05,1.45-1.09,2.26-.11Z"/>
        <path class="cls-11" d="M432.22,214.14c-.22.23-.45.46-.67.7-.8.02-1.6.04-2.4.07.03-.25.05-.5.08-.76,1-.65,1.99-1.15,2.99,0Z"/>
        <path class="cls-38" d="M403.35,328.94c-.23.66-.64,1.14-1.04.8-.35-.3-.4-1-.51-1.54-.14-.68.43-.9.79-.62.41.32.56.97.77,1.36Z"/>
        <path class="cls-125" d="M421.53,212.64c-.98-.85-1.93-.4-2.88.06-.29-1.18.41-1.49,1.38-1.51.95-.01,1.68.26,1.5,1.45Z"/>
        <path class="cls-57" d="M413.45,211.95c-.26-.27-.51-.53-.77-.8.62-.62,1.54-1.3,2.07-.4.5.85-.69.95-1.31,1.19Z"/>
        <path class="cls-45" d="M453.18,330.4c-.23,0-.46-.01-.69-.02-.81-.98-.96-1.98-.08-3.01,1.43.71.51,2.02.77,3.02Z"/>
        <path class="cls-85" d="M372.18,326.67c-.33,0-.66-.01-.99-.02-.77-.85-1.71-1.05-2.78-.72,1.53-1.14,2.87-1.3,3.77.74Z"/>
        <path class="cls-138" d="M332.52,322.96c-.23-.22-.46-.44-.7-.65,1.22-.03,2.44-.06,3.65-.09-.03.59-.06,1.18-.72,1.45-.42-1.27-1.5-.45-2.23-.71Z"/>
        <path class="cls-6" d="M407.45,390.39c.06.24.06.48,0,.72-1.23.04-2.46.09-3.69.13.01-.34.03-.69.04-1.03,1.21.06,2.43.12,3.64.18Z"/>
        <path class="cls-19" d="M443.24,391.36c.56.07.85.35.64.74-.14.25-.58.42-.91.44-.28.02-.89-.01-.51-.6.18-.28.56-.43.77-.58Z"/>
        <path class="cls-87" d="M325.88,313.76c-.24.26-.48.53-.72.79-.25-1.07-.62-2.17.5-3.01.28.29.56.59.84.88-.21.45-.41.9-.62,1.34Z"/>
        <path class="cls-53" d="M336.15,265.21c-.27.32-.53.63-.8.95-.92-1.2-1.11-2.37.16-3.47.22.84.43,1.68.65,2.53Z"/>
        <path class="cls-23" d="M409.1,223.15c-.36.04-.72.08-1.07.13-.73-.41-1.77-1.1-.68-1.73,1.1-.64,1.13,1.06,1.75,1.6Z"/>
        <path class="cls-67" d="M331.29,301.06c.37.49.63.85.9,1.22-.3.12-.64.37-.91.32-.26-.05-.6-.41-.62-.66-.02-.22.33-.49.63-.87Z"/>
        <path class="cls-134" d="M333.9,311.06l.93-.93c.5.6,1.01,1.41.24,1.92-.63.42-1.01-.35-1.17-.99Z"/>
        <path class="cls-131" d="M426.01,387.92c-1.21.18-2.43.36-3.64.55.95-1.95,2.3-1.23,3.64-.55Z"/>
        <path class="cls-92" d="M435.81,222.18c.13.64.13,1.34.79,1.74-.04.45-.09.89-.13,1.34-.27-.15-.63-.23-.8-.46-.65-.89-.65-1.79.14-2.62Z"/>
        <path class="cls-111" d="M395.46,393.15c-.1-.15-.11-.3-.04-.46.94.36,1.88.72,2.98,1.15-1.25.34-2.3.62-2.93-.69Z"/>
        <path class="cls-14" d="M377.46,316.97c-2.72-2.11-4.96-4.15-4.85-8.31.09-3.5-2.33-6.18-6.15-6.91-1.14-.22-2.18-.53-2.49-2.49,4.57.14,9.04-.38,13.53.36.49,5.78.58,11.57-.04,17.35Z"/>
        <path class="cls-24" d="M435.47,299.25c3.06,0,6.13.09,9.18-.03,1.89-.08,2.67.47,2.57,2.49-.15,3.08-.04,6.17-.04,9.96-2.75-2.67-6.18-3.58-6.87-7.65-.38-2.25-2.93-3.17-4.85-4.77Z"/>
        <path class="cls-24" d="M495.44,304.25v13.17c-3.37-3.54-7.23-6.09-12.19-7.51,3.8-2.66,7.72-4.22,12.19-5.66Z"/>
        <path class="cls-97" d="M377.46,316.97c.01-5.78.03-11.56.04-17.35,1.33,5.82.54,11.7.45,17.55,0,.02-.17.08-.22.05-.1-.06-.18-.17-.27-.26Z"/>
        <path class="cls-126" d="M481.17,263.55c-5.37,0-10.74-.05-16.1.03-1.95.03-2.89-.12-2.45-2.63,1.26-7.12,2.07-14.31,3.27-21.44,1.46-8.73,8.22-14.37,16.94-14.41,7.64-.03,14.96,6.37,15.9,14.71.81,7.18.74,14.45,1.15,21.68.12,2.14-1.14,2.07-2.6,2.07-5.37-.03-10.73-.01-16.1-.01Z"/>
        <path class="cls-126" d="M513.08,371.06c1.16-16.82,2.27-33,3.41-49.17,1.14-16.17,2.31-32.34,3.98-48.6,1.28,6.7,2.6,13.39,3.85,20.09,3.9,20.94,7.77,41.89,11.67,62.83.27,1.45.92,2.74-1.09,3.73-7.13,3.51-14.16,7.2-21.81,11.12Z"/>
      </g>
    </g>
  </g>
</svg>